<svg width="50" height="50" viewBox="0 0 50 50" fill="none" xmlns="http://www.w3.org/2000/svg">
<path d="M46.207 21.6289L45.9863 20.6924H25.6309V29.3076H37.793C36.5303 35.3037 30.6709 38.46 25.8848 38.46C22.4023 38.46 18.7314 36.9951 16.3018 34.6406C15.0199 33.3785 13.9995 31.876 13.299 30.2191C12.5986 28.5621 12.2318 26.7833 12.2197 24.9844C12.2197 21.3555 13.8506 17.7256 16.2236 15.3379C18.5967 12.9502 22.1807 11.6143 25.7441 11.6143C29.8252 11.6143 32.75 13.7813 33.8437 14.7695L39.9658 8.67969C38.1699 7.10156 33.2363 3.125 25.5469 3.125C19.6143 3.125 13.9258 5.39746 9.76758 9.54199C5.66406 13.623 3.54004 19.5244 3.54004 25C3.54004 30.4756 5.5498 36.082 9.52637 40.1953C13.7754 44.582 19.793 46.875 25.9893 46.875C31.627 46.875 36.9707 44.666 40.7793 40.6582C44.5234 36.7129 46.46 31.2539 46.46 25.5313C46.46 23.1221 46.2178 21.6914 46.207 21.6289Z" fill="#BBB0A4"/>
</svg>
