<svg width="25" height="20" viewBox="0 0 25 20" fill="none" xmlns="http://www.w3.org/2000/svg">
<path d="M21.875 0H3.125C2.29647 0.000902401 1.50213 0.336419 0.91627 0.93293C0.330411 1.52944 0.000886287 2.33822 0 3.18182V16.8182C0.000886287 17.6618 0.330411 18.4706 0.91627 19.0671C1.50213 19.6636 2.29647 19.9991 3.125 20H21.875C22.7035 19.9991 23.4979 19.6636 24.0837 19.0671C24.6696 18.4706 24.9991 17.6618 25 16.8182V3.18182C24.9991 2.33822 24.6696 1.52944 24.0837 0.93293C23.4979 0.336419 22.7035 0.000902401 21.875 0ZM21.0837 5.26307L13.048 11.6267C12.8913 11.7507 12.6985 11.8181 12.5 11.8181C12.3015 11.8181 12.1087 11.7507 11.952 11.6267L3.91629 5.26307C3.82188 5.19047 3.74258 5.0995 3.683 4.99543C3.62342 4.89136 3.58474 4.77627 3.56922 4.65685C3.5537 4.53743 3.56165 4.41607 3.5926 4.2998C3.62354 4.18353 3.67688 4.07469 3.7495 3.97959C3.82212 3.88449 3.91257 3.80504 4.01561 3.74585C4.11865 3.68665 4.23222 3.6489 4.34971 3.63478C4.46721 3.62066 4.58628 3.63045 4.70003 3.6636C4.81377 3.69674 4.91991 3.75257 5.01228 3.82784L12.5 9.75739L19.9877 3.82784C20.175 3.68388 20.4103 3.62073 20.6429 3.65207C20.8755 3.68341 21.0866 3.8067 21.2307 3.9953C21.3747 4.18389 21.44 4.42262 21.4125 4.65986C21.385 4.89711 21.2669 5.1138 21.0837 5.26307Z" fill="#BBB0A4"/>
</svg>
