<svg width="25" height="20" viewBox="0 0 25 20" fill="none" xmlns="http://www.w3.org/2000/svg">
<path d="M7.60162 17.3524C7.34213 17.3527 7.09145 17.2507 6.89649 17.0656L0.365661 10.8879C0.250798 10.7792 0.158751 10.6452 0.0956879 10.4949C0.0326245 10.3446 0 10.1815 0 10.0164C0 9.85139 0.0326245 9.68826 0.0956879 9.53796C0.158751 9.38766 0.250798 9.25366 0.365661 9.14494L6.89649 2.96727C7.11037 2.76495 7.38982 2.66277 7.67339 2.6832C7.95695 2.70363 8.22139 2.845 8.40854 3.0762C8.59568 3.30741 8.6902 3.60952 8.6713 3.91607C8.65241 4.22261 8.52164 4.50849 8.30777 4.71081L2.69788 10.0164L8.30726 15.3221C8.47143 15.4772 8.5879 15.6829 8.64111 15.9115C8.69432 16.1401 8.68174 16.3808 8.60504 16.6015C8.52835 16.8222 8.39119 17.0123 8.21189 17.1465C8.03259 17.2807 7.81969 17.3525 7.60162 17.3524ZM17.3979 17.3524C17.1798 17.3526 16.9668 17.2809 16.7874 17.1467C16.608 17.0126 16.4708 16.8225 16.394 16.6018C16.3173 16.3811 16.3046 16.1403 16.3578 15.9116C16.411 15.6829 16.5275 15.4773 16.6917 15.3221L22.3016 10.0164L16.6922 4.71081C16.4784 4.50849 16.3476 4.22261 16.3287 3.91607C16.3098 3.60952 16.4043 3.30741 16.5915 3.0762C16.7786 2.845 17.0431 2.70363 17.3266 2.6832C17.6102 2.66277 17.8896 2.76495 18.1035 2.96727L24.6343 9.14494C24.7492 9.25366 24.8412 9.38766 24.9043 9.53796C24.9674 9.68826 25 9.85139 25 10.0164C25 10.1815 24.9674 10.3446 24.9043 10.4949C24.8412 10.6452 24.7492 10.7792 24.6343 10.8879L18.1035 17.0656C17.9085 17.2509 17.6575 17.3529 17.3979 17.3524ZM10.0507 20C9.88382 20 9.71928 19.9578 9.57016 19.8769C9.42104 19.7959 9.29147 19.6785 9.19176 19.5338C9.09206 19.3892 9.02499 19.2214 8.99588 19.0437C8.96677 18.8661 8.97644 18.6836 9.02412 18.5107L13.9222 0.860239C13.9591 0.71046 14.0235 0.570209 14.1114 0.447796C14.1994 0.325383 14.3091 0.223297 14.4343 0.147586C14.5594 0.0718745 14.6973 0.0240786 14.8398 0.00702898C14.9823 -0.0100207 15.1265 0.00402297 15.2639 0.0483279C15.4013 0.0926328 15.5291 0.166298 15.6396 0.264959C15.7502 0.36362 15.8414 0.485271 15.9077 0.622704C15.974 0.760137 16.0141 0.910556 16.0256 1.06505C16.0372 1.21955 16.0199 1.37498 15.9749 1.52213L11.0767 19.1726C11.0108 19.4115 10.8754 19.6211 10.6906 19.7702C10.5057 19.9192 10.2813 19.9998 10.0507 20Z" fill="#BBB0A4"/>
</svg>
